<?xml version="1.0" ?><!DOCTYPE svg  PUBLIC '-//W3C//DTD SVG 1.1//EN'  'http://www.w3.org/Graphics/SVG/1.1/DTD/svg11.dtd'><svg height="140px" id="Layer_1" style="enable-background:new 0 0 140 140;" version="1.1" viewBox="0 0 140 140" width="140px" xml:space="preserve" xmlns="http://www.w3.org/2000/svg" xmlns:xlink="http://www.w3.org/1999/xlink"><g><path d="M70,130c-33.084,0-60-26.917-60-60s26.916-60,60-60c33.083,0,60,26.917,60,60S103.084,130,70,130z" style="fill:#F2F2F2;"/><circle cx="70" cy="70" r="58.064" style="fill:#8B95AA;"/><g><path d="M105.453,102.667h-68.71c-0.535,0-1.108-0.196-1.108-0.731V79.339c0-0.258,0.173-0.504,0.356-0.687    l14.571-14.453c0.378-0.376,0.756-0.376,1.134,0l2.938,3.151V54.516c0-0.535,0.929-0.85,1.463-0.85h30    c0.535,0,0.537,0.315,0.537,0.85V67.25l3.282-3.051c0.377-0.375,1.092-0.376,1.47-0.003l14.799,14.454    c0.185,0.183,0.449,0.43,0.449,0.688v22.597C106.635,102.471,105.988,102.667,105.453,102.667z" style="fill:#5C393F;"/><path d="M106.238,78.65l-14.69-14.455c-0.377-0.373-1.228-0.372-1.604,0.003l-3.309,3.051V54.516    c0-0.535-0.002-0.85-0.537-0.85H70.635v49h34.818c0.535,0,1.182-0.196,1.182-0.73V79.338    C106.635,79.081,106.424,78.833,106.238,78.65z" style="fill:#472C31;"/><path d="M62.635,88.667h17V68.161c0-4.003-4.255-7.386-8.5-7.386s-8.5,3.343-8.5,7.298V88.667z" style="fill:#EFFBCD;"/><path d="M53.195,93.667h-6.774c-0.535,0-0.786,0.094-0.786-0.44v-8.969c0-2.256,2.14-4.16,4.5-4.16    s4.5,1.922,4.5,4.198v8.931C54.635,93.761,53.73,93.667,53.195,93.667z M47.635,91.667h5v-7.372c0-1.206-1.211-2.263-2.5-2.263    c-1.312,0-2.5,1.019-2.5,2.226V91.667z" style="fill:#FFCF47;"/><path d="M46.635,92.667h7v-8.819c0-1.397-1.51-2.621-3.5-2.621c-2.025,0-3.5,1.178-3.5,2.575V92.667z" style="fill:#EFFBCD;"/><path d="M51.424,53.846l18.174-27.167c0.179-0.269,0.037-0.431,1.037-0.434v29.422H52.14    c-0.007,0-0.014,0-0.019,0c-0.535,0-0.968-0.524-0.968-1.059C51.153,54.347,51.256,54.02,51.424,53.846z" style="fill:#92332F;"/><path d="M88.635,92.667h7v-8.819c0-1.397-1.51-2.621-3.5-2.621c-2.025,0-3.5,1.178-3.5,2.575V92.667z" style="fill:#EFFBCD;"/><path d="M95.775,93.667h-6.773c-0.535,0-1.367,0.094-1.367-0.44v-8.969c0-2.256,2.141-4.16,4.5-4.16    s4.5,1.922,4.5,4.198v8.931C96.635,93.761,96.311,93.667,95.775,93.667z M89.635,91.667h5v-7.372c0-1.206-1.211-2.263-2.5-2.263    c-1.313,0-2.5,1.019-2.5,2.226V91.667z" style="fill:#FFCF47;"/><path d="M79.324,89.667H62.873c-0.535,0-1.238,0.224-1.238-0.312v-20.77c0-4.716,4.517-8.7,9.5-8.7    c4.982,0,9.5,4.021,9.5,8.781v20.688C80.635,89.891,79.859,89.667,79.324,89.667z M63.635,87.667h15V68.668    c0-3.71-3.566-6.845-7.5-6.845c-3.934,0-7.5,3.098-7.5,6.764V87.667z" style="fill:#FFCF47;"/><path d="M89.846,53.846L71.672,26.679c-0.18-0.269-0.037-0.431-1.037-0.434v29.422H89.13    c0.007,0,0.014,0,0.019,0c0.535,0,0.969-0.524,0.969-1.059C90.117,54.347,90.014,54.02,89.846,53.846z" style="fill:#802D29;"/></g></g></svg>